<svg xmlns="http://www.w3.org/2000/svg" version="1.1" xmlns:xlink="http://www.w3.org/1999/xlink" xmlns:svgjs="http://svgjs.dev/svgjs" width="1000" height="1125" viewBox="0 0 1000 1125"><g transform="matrix(1,0,0,1,1.7053025658242404e-13,0)"><svg viewBox="0 0 320 360" data-background-color="#ffffff" preserveAspectRatio="xMidYMid meet" height="1125" width="1000" xmlns="http://www.w3.org/2000/svg" xmlns:xlink="http://www.w3.org/1999/xlink"><g id="tight-bounds" transform="matrix(1,0,0,1,0,0)"><svg viewBox="0 0 320 360" height="360" width="320"><g><svg></svg></g><g><svg viewBox="0 0 320 360" height="360" width="320"><g><path xmlns="http://www.w3.org/2000/svg" d="M20.961 227.22l3.726 4.658-1.863-6.056c-0.466-2.795-3.726 0.466-1.863 1.398M25.153 224.425c1.397 2.329 2.795 4.658 2.795 6.987 0 3.261 2.795 4.658 5.123 5.589-3.261-3.726-5.124-13.974-7.918-12.576M204.017 26.929c7.918 0 15.371-0.932 23.756 0.931 20.495 5.124 37.729 15.371 49.374 29.811l32.606 52.169c1.397 13.042 4.192 27.482 3.726 43.319 3.261 0 2.795-4.658 6.521-5.59-3.726 9.316-5.59 20.961-6.521 34.469-2.329-7.453 0-18.632 0.466-24.687-3.261 5.124-5.124 1.397-5.124-0.932 0.466-3.726-1.397-3.261-2.795-4.658-5.124-4.658-8.384-9.782-12.11-17.7 2.329-6.055 2.795-14.905-4.658-19.563-2.329-1.397-5.124-3.726-6.521-7.453-1.863-5.124-5.124-11.179-4.193-19.097 0.466-2.329-6.987 5.124-11.179 1.863-18.166-12.576-36.332-27.016-58.224-39.127-11.645 0-20.029-4.192-24.221-9.316-3.726-4.658-0.932-10.713 4.658-11.179 3.261 0 6.987-0.932 9.782 0.932 0.466-1.863 2.329-4.192 4.657-4.192M157.904 16.215l0.932 0.466c4.658 0.932 6.987 7.453 12.11 5.124 0 3.261 0.466 6.521-0.466 8.85-1.397 3.726-5.59 3.726-8.85 3.726-31.208-1.863-49.374 11.179-68.471 22.358-5.124 3.261-10.713 5.59-14.906 9.782-20.029 18.632-41.921 35.866-47.045 70.335l-4.192 38.195c-0.466 4.192-5.124 8.384-4.192 13.508l3.26 22.824c-3.261-3.261-5.124 0.932-4.192 2.795 0.466 1.397 2.329 6.055 5.124 1.863 3.726 6.987 7.453 20.495 12.576 26.55 15.837 18.632 36.332 35.4 53.101 52.169 4.192-0.932 7.453-0.932 8.384-3.727 1.397 2.795-1.397 5.59-3.726 6.056 7.453 4.658 15.837 8.85 27.016 9.781 14.44 0.932 27.948 3.261 40.524 6.522 6.521-1.863 13.042-2.795 20.029-3.261 2.329 0 3.726-3.726 6.521-4.658l0.466-4.658c2.795 4.192 2.329-1.397 0.466-4.192 3.261 2.795 4.192 5.124 5.589 6.987 0-1.397 3.726-6.521 3.727-0.466l0.931-6.055c1.397-0.932 1.863 5.124 3.261 0.931 1.397-4.192 4.192-0.932 6.987-2.329-0.932 1.863-0.466 5.59 2.794 3.261l3.727-3.261c2.329 5.59 6.055 3.261 7.918 2.329 20.495-13.042 40.99-28.413 60.553-43.784l-0.466 6.055 2.329-7.453c2.329 2.329 4.192 0.466 5.124-0.931 2.795-4.658 6.521-9.316 12.577-13.508-7.453 20.029-16.303 35.866-27.482 48.908l-4.658 5.59c0 3.261-0.932 7.453-4.658 7.918-1.863 0.466-5.59-0.932-8.384 1.863-1.397 1.863 3.261 5.59-0.466 2.795-3.261-2.329-6.521 0-10.248 0.932-2.795 0.932 1.863 3.726 2.795 5.589 0.932 1.863 1.863 3.726 1.398 6.056l-5.124-5.59c-6.055 3.261-9.782 9.316-14.906 13.974-2.329 1.863-1.397 5.124-1.397 7.918-3.261 0-6.987-0.932-8.85 0.932-1.397 1.863-0.932 4.658-0.932 7.453-4.658-0.466-5.124-7.453-9.315-6.056-4.192 0.932-8.85 1.397-12.577 3.727 2.795 5.59-4.658 2.329-3.726 3.26-6.987-4.192-13.042-7.453-20.495-4.658-15.837-5.124-35.4-2.795-49.84-0.931 0-2.329 0.466-4.658-0.466-5.124-0.932 2.329-3.726 1.397-3.26 1.397-8.85-6.055-17.7-9.782-27.016-14.905-8.384 0.932-16.303-3.261-18.632-5.59-6.521-6.055-13.974-2.795-20.029-4.192-13.042-3.261-17.7-16.769-19.098-26.084-0.932-4.658-4.658-6.521-6.055-6.056-6.055-19.563-15.371-37.263-22.824-55.429-1.863-4.658-1.397-9.316-1.397-14.44 2.329 0.932 4.658 0.466 4.192-2.794-2.329-15.371-7.918-27.016-13.974-38.195 3.261-15.837 3.726-34.469 11.179-48.443 6.521-12.576 18.632-19.098 27.016-29.811 2.795-3.726 2.795-8.85 5.59-12.11 9.316-9.316 18.632-19.098 28.879-27.482 4.658-3.726 10.247 0 17.234-1.397 2.329-8.384 11.645-15.837 20.495-13.508 3.726 0.932 11.179-8.85 13.508-9.782 3.726-1.397 1.863 3.726 1.863 6.987 8.85-6.987 20.961-10.713 32.14-14.906" fill="#d498ca" fill-rule="nonzero" stroke="none" stroke-width="1" stroke-linecap="butt" stroke-linejoin="miter" stroke-miterlimit="10" stroke-dasharray="" stroke-dashoffset="0" font-family="none" font-weight="none" font-size="none" text-anchor="none" style="mix-blend-mode: normal" data-fill-palette-color="tertiary"></path></g><g transform="matrix(1,0,0,1,64,90.049701291215)"><svg viewBox="0 0 192 179.90059741757" height="179.90059741757" width="192"><g><svg viewBox="0 0 192 179.90059741757" height="179.90059741757" width="192"><g><svg viewBox="0 0 192 179.90059741757" height="179.90059741757" width="192"><g transform="matrix(1,0,0,1,0,108.73524694913425)"><svg viewBox="0 0 192 71.16535046843576" height="71.16535046843576" width="192"><g id="textblocktransform"><svg viewBox="0 0 192 71.16535046843576" height="71.16535046843576" width="192" id="textblock"><g><svg viewBox="0 0 192 71.16535046843576" height="71.16535046843576" width="192"><g transform="matrix(1,0,0,1,0,0)"><svg width="192" viewBox="2.25 -37.66800308227539 104.7699966430664 38.83800506591797" height="71.16535046843576" data-palette-color="#d498ca"><path d="M36.91-0.15L36.91-0.15Q36.67 0.1 36.38 0.15 36.08 0.2 35.79 0.2L35.79 0.2Q35.06 0.54 34.23 0.54L34.23 0.54Q33.69 0.24 33.64 0.34 33.59 0.44 33.45 0.54L33.45 0.54Q32.71 0.88 32.13 0.9 31.54 0.93 31.15 1.17L31.15 1.17Q30.76 0.88 30.74 0.32 30.71-0.24 30.62-0.63L30.62-0.63Q30.37-0.98 30.27-1.49 30.18-2 30.13-2.54 30.08-3.08 30-3.59 29.93-4.1 29.74-4.49L29.74-4.49Q29.69-4.74 29.71-4.93 29.74-5.13 29.64-5.37L29.64-5.37Q29.69-6.2 29.59-6.69 29.49-7.18 29.39-7.71L29.39-7.71Q29.35-8.01 29.35-8.37 29.35-8.74 29.05-8.94L29.05-8.94Q29.2-9.62 29.1-9.96 29-10.3 28.96-10.6L28.96-10.6Q28.91-10.99 28.91-11.45 28.91-11.91 28.81-12.3L28.81-12.3Q28.52-14.65 28.17-16.99 27.83-19.34 27.54-21.68L27.54-21.68Q27.25-21.44 27.12-20.95 27-20.46 26.9-20.07L26.9-20.07Q26.61-19.19 26.37-18.26 26.12-17.33 25.88-16.46L25.88-16.46Q25.78-16.06 25.71-15.55 25.63-15.04 25.49-14.65L25.49-14.65Q25-13.23 24.63-12.21 24.27-11.18 23.93-10.11L23.93-10.11Q23.83-9.52 23.73-8.98 23.63-8.45 23.54-7.91L23.54-7.91Q23.49-7.62 23.39-7.08 23.29-6.54 23.19-6.3L23.19-6.3Q23.1-6.05 23.02-5.96 22.95-5.86 23-5.62L23-5.62Q22.51-4.88 22.34-4 22.17-3.13 21.73-2.29L21.73-2.29Q21.73-1.71 21.29-1.27L21.29-1.27Q21.04-1.22 20.83-1.17 20.61-1.12 20.36-0.98L20.36-0.98Q20.12-1.07 19.8-1.1 19.48-1.12 19.19-1.12L19.19-1.12Q18.95-1.17 18.75-1.29 18.55-1.42 18.31-1.46L18.31-1.46Q18.07-1.76 17.77-1.98 17.48-2.2 17.19-2.44L17.19-2.44Q16.89-3.17 16.65-3.42L16.65-3.42Q16.5-3.96 16.26-4.42 16.02-4.88 15.92-5.47L15.92-5.47Q15.77-6.01 15.55-6.47 15.33-6.93 15.09-7.47L15.09-7.47Q14.99-7.81 14.87-8.13 14.75-8.45 14.6-8.79L14.6-8.79Q14.55-9.18 14.33-9.77 14.11-10.35 14.01-10.79L14.01-10.79Q14.01-10.84 13.84-11.3 13.67-11.77 13.5-12.3 13.33-12.84 13.16-13.28 12.99-13.72 12.94-13.77L12.94-13.77Q12.84-14.01 12.77-14.23 12.7-14.45 12.6-14.75L12.6-14.75Q12.4-15.38 12.11-16.04 11.82-16.7 11.52-17.29L11.52-17.29Q11.28-17.77 11.18-18.24 11.08-18.7 10.94-19.14L10.94-19.14Q10.84-19.38 10.77-19.58 10.69-19.78 10.6-20.02L10.6-20.02Q10.5-20.31 10.4-20.63 10.3-20.95 10.21-21.29L10.21-21.29Q9.96-21.19 9.99-20.87 10.01-20.56 9.96-20.31L9.96-20.31Q9.86-19.78 9.86-19.26 9.86-18.75 9.81-18.21L9.81-18.21Q9.72-17.63 9.62-17.09 9.52-16.55 9.47-16.02L9.47-16.02Q9.47-14.7 9.33-13.38L9.33-13.38Q9.23-12.21 9.08-11.01 8.94-9.81 8.89-8.54L8.89-8.54Q8.89-7.62 8.69-6.71 8.5-5.81 8.59-4.83L8.59-4.83Q8.5-4.64 8.5-4.54 8.5-4.44 8.5-4.25L8.5-4.25Q8.5-4 8.47-3.71 8.45-3.42 8.45-3.17L8.45-3.17Q8.45-2.73 8.54-2.59L8.54-2.59Q8.4-2.15 8.4-1.64 8.4-1.12 8.4-0.63L8.4-0.63Q8.3-0.44 8.28-0.24 8.25-0.05 8.11 0.15L8.11 0.15Q8.15 0.98 7.62 0.98L7.62 0.98Q7.47 0.98 7.3 0.9 7.13 0.83 7.03 0.68L7.03 0.68Q6.49 0.73 6.42 0.44 6.35 0.15 6.1 0.2L6.1 0.2Q5.52 0.44 5.44 0.34 5.37 0.24 5.13 0.29L5.13 0.29Q4.74-0.1 4.61-0.05 4.49 0 4.39 0L4.39 0Q3.96-0.15 3.91-0.07 3.86 0 3.71 0L3.71 0Q3.47-0.24 3.05-0.24 2.64-0.24 2.34-0.29L2.34-0.29Q2.29-0.49 2.27-0.66 2.25-0.83 2.25-1.07L2.25-1.07Q2.25-1.37 2.27-1.64 2.29-1.9 2.29-2.2L2.29-2.2Q2.29-2.44 2.27-2.71 2.25-2.98 2.25-3.32L2.25-3.32Q2.25-3.66 2.29-3.98 2.34-4.3 2.34-4.69L2.34-4.69Q2.34-4.83 2.29-4.96 2.25-5.08 2.25-5.27L2.25-5.27Q2.54-5.91 2.51-6.27 2.49-6.64 2.54-6.98L2.54-6.98Q2.64-7.81 2.71-8.62 2.78-9.42 2.88-10.25L2.88-10.25Q2.88-11.62 2.95-12.52 3.03-13.43 3.17-14.36L3.17-14.36Q3.27-14.79 3.34-15.19 3.42-15.58 3.52-16.02L3.52-16.02Q3.61-16.75 3.64-17.55 3.66-18.36 3.76-19.14L3.76-19.14Q3.86-20.36 4-21.56 4.15-22.75 4.25-23.93L4.25-23.93Q4.35-24.85 4.47-25.76 4.59-26.66 4.59-27.49L4.59-27.49Q4.59-27.93 4.71-28.61 4.83-29.3 4.88-29.79L4.88-29.79Q4.98-30.96 5.05-32.08 5.13-33.2 5.13-34.33L5.13-34.33 5.13-34.86Q5.13-34.96 5.22-35.06 5.32-35.16 5.32-35.4L5.32-35.4Q5.32-35.84 5.54-36.01 5.76-36.18 5.91-36.57L5.91-36.57Q6.15-36.57 6.47-36.52 6.79-36.47 6.93-36.23L6.93-36.23Q7.28-36.33 7.62-36.33 7.96-36.33 8.2-36.57L8.2-36.57Q8.5-36.57 8.64-36.43 8.79-36.28 9.03-36.18L9.03-36.18Q9.23-36.28 9.42-36.35 9.62-36.43 9.81-36.52L9.81-36.52Q9.96-36.43 10.03-36.3 10.11-36.18 10.25-36.13L10.25-36.13Q10.99-36.33 11.23-36.18L11.23-36.18Q11.33-35.99 11.35-35.79 11.38-35.6 11.43-35.4L11.43-35.4Q11.91-34.91 12.06-34.3 12.21-33.69 12.6-33.2L12.6-33.2Q12.7-32.91 12.82-32.62 12.94-32.32 13.04-31.93L13.04-31.93 13.18-31.35Q13.38-30.86 13.67-30.18L13.67-30.18Q13.92-29.25 14.11-28.27 14.31-27.29 14.75-26.46L14.75-26.46Q14.79-26.17 14.92-25.76 15.04-25.34 15.14-25.05L15.14-25.05Q15.48-24.22 15.84-23.41 16.21-22.61 16.5-21.68L16.5-21.68Q16.8-20.75 17.02-19.78 17.24-18.8 17.58-17.87L17.58-17.87Q17.87-16.99 18.02-16.6 18.16-16.21 18.41-15.82L18.41-15.82Q18.41-15.67 18.48-15.33 18.55-14.99 18.7-14.62 18.85-14.26 18.99-13.94 19.14-13.62 19.29-13.57L19.29-13.57Q19.43-13.67 19.46-13.87 19.48-14.06 19.63-14.21L19.63-14.21Q19.68-14.75 19.8-15.53 19.92-16.31 20.17-16.8L20.17-16.8Q20.17-17.04 20.29-17.7 20.41-18.36 20.61-19.12 20.8-19.87 20.97-20.51 21.14-21.14 21.29-21.29L21.29-21.29Q21.39-21.92 21.46-22.07 21.53-22.22 21.63-22.31L21.63-22.31Q21.68-22.71 21.83-23.05 21.97-23.39 22.02-23.78L22.02-23.78Q22.12-24.61 22.27-25.15 22.41-25.68 22.66-26.46L22.66-26.46Q22.85-27.15 23.02-27.86 23.19-28.56 23.44-29.25L23.44-29.25Q24.02-31.1 24.49-32.54 24.95-33.98 25.63-35.35L25.63-35.35Q25.78-35.79 25.88-35.89 25.98-35.99 26.07-36.08L26.07-36.08Q26.46-36.23 26.88-36.23 27.29-36.23 27.73-36.18L27.73-36.18Q28.22-36.38 28.47-36.62L28.47-36.62Q28.66-36.38 29.05-36.38L29.05-36.38Q29.54-36.38 29.74-36.67L29.74-36.67Q29.93-36.57 30.05-36.62 30.18-36.67 30.42-36.57L30.42-36.57Q30.52-36.67 30.66-36.79 30.81-36.91 30.96-36.91L30.96-36.91Q31.35-36.43 31.57-36.16 31.79-35.89 31.88-35.55L31.88-35.55Q32.03-35.11 32.06-34.59 32.08-34.08 32.32-33.64L32.32-33.64Q32.28-33.01 32.4-31.71 32.52-30.42 32.69-28.98 32.86-27.54 33.06-26.32 33.25-25.1 33.4-24.8L33.4-24.8Q33.35-24.17 33.45-23.73 33.54-23.29 33.54-22.85L33.54-22.85Q33.54-22.71 33.59-22.24 33.64-21.78 33.69-21.26 33.74-20.75 33.81-20.29 33.89-19.82 33.94-19.63L33.94-19.63Q33.94-18.75 34.23-18.26L34.23-18.26Q34.47-17.04 34.64-15.82 34.81-14.6 34.96-13.33L34.96-13.33Q35.06-12.7 35.08-12.11 35.11-11.52 35.21-10.89L35.21-10.89Q35.25-10.64 35.33-10.4 35.4-10.16 35.45-9.91L35.45-9.91Q35.55-9.42 35.6-8.98 35.64-8.54 35.74-8.11L35.74-8.11Q35.79-7.86 35.89-7.59 35.99-7.32 35.89-7.03L35.89-7.03Q35.99-6.69 35.96-6.3 35.94-5.91 36.13-5.62L36.13-5.62Q36.13-4.59 36.28-3.81L36.28-3.81Q36.33-3.22 36.57-2.64L36.57-2.64Q36.67-2.05 36.74-1.42 36.82-0.78 36.91-0.15ZM58.25-6.84L58.25-6.84Q58.64-6.2 58.84-5.62 59.03-5.03 59.03-4.79L59.03-4.79Q59.03-4.44 58.91-4.22 58.79-4 58.59-3.76L58.59-3.76Q56.64-2.93 54.71-2.22 52.78-1.51 50.78-0.83L50.78-0.83Q50.29-0.68 49.83-0.51 49.36-0.34 48.83-0.24L48.83-0.24Q48.73-0.15 48.48-0.05 48.24 0.05 47.92 0.15 47.6 0.24 47.31 0.32 47.02 0.39 46.92 0.39L46.92 0.39Q46.82 0.15 46.73 0.1 46.63 0.05 46.53 0L46.53 0Q46.29 0 46.21 0.17 46.14 0.34 45.9 0.44L45.9 0.44Q45.65 0.44 45.46 0.46 45.26 0.49 45.11 0.39L45.11 0.39Q44.72 0.49 44.41 0.73 44.09 0.98 43.7 1.07L43.7 1.07Q42.97 0.88 42.8 0.9 42.62 0.93 42.43 0.98L42.43 0.98Q42.09 0.68 42.11 0.15 42.14-0.39 41.84-0.73L41.84-0.73Q41.84-1.37 41.75-1.44 41.65-1.51 41.65-1.61L41.65-1.61Q41.65-1.95 41.7-2.25 41.75-2.54 41.65-2.88L41.65-2.88Q41.84-3.71 41.79-4.49 41.75-5.27 41.84-6.05L41.84-6.05Q41.84-6.3 41.87-6.52 41.89-6.74 41.89-6.98L41.89-6.98Q41.89-7.71 41.99-7.89 42.09-8.06 42.09-8.3L42.09-8.3Q42.09-8.64 42.06-8.96 42.04-9.28 42.04-9.67L42.04-9.67Q42.04-10.35 42.06-11.01 42.09-11.67 42.09-12.4L42.09-12.4Q42.09-14.26 41.84-16.11 41.6-17.97 41.6-19.82L41.6-19.82Q41.6-22.07 41.35-24.27 41.11-26.46 41.11-28.71L41.11-28.71Q41.11-29.1 41.11-29.81 41.11-30.52 41.11-31.27 41.11-32.03 41.14-32.71 41.16-33.4 41.21-33.69L41.21-33.69Q41.21-33.74 41.5-33.84 41.79-33.94 41.89-33.94L41.89-33.94Q42.14-33.94 42.28-33.81 42.43-33.69 42.62-33.59L42.62-33.59Q43.5-33.69 43.67-33.76 43.85-33.84 43.94-33.84L43.94-33.84Q44.24-33.84 44.41-33.69 44.58-33.54 44.68-33.54L44.68-33.54Q45.51-33.74 45.58-33.59 45.65-33.45 45.9-33.45L45.9-33.45Q46.53-33.64 46.68-33.59 46.82-33.54 46.97-33.54L46.97-33.54Q47.21-33.54 47.51-33.72 47.8-33.89 48.04-33.98L48.04-33.98Q48.87-34.23 49.41-34.47L49.41-34.47Q50.14-34.91 50.51-35.06 50.88-35.21 51.27-35.4L51.27-35.4Q52.1-35.74 52.85-36.11 53.61-36.47 54.44-36.87L54.44-36.87Q54.59-36.87 54.76-36.89 54.93-36.91 55.03-37.01L55.03-37.01Q55.17-36.96 55.34-36.96 55.52-36.96 55.66-36.96L55.66-36.96Q56.15-36.77 56.3-36.72L56.3-36.72Q56.49-36.43 56.66-36.16 56.83-35.89 57.08-35.64L57.08-35.64Q57.32-35.21 57.47-35.21L57.47-35.21Q57.47-35.06 57.32-34.89 57.18-34.72 57.18-34.57L57.18-34.57Q57.57-33.89 57.81-33.3 58.05-32.71 58.05-32.47L58.05-32.47Q58.05-32.13 57.96-31.91 57.86-31.69 57.71-31.45L57.71-31.45Q55.86-30.57 53.98-29.71 52.1-28.86 50.14-28.03L50.14-28.03Q49.66-27.83 49.22-27.61 48.78-27.39 48.24-27.29L48.24-27.29Q48.14-27.2 47.8-27.12 47.46-27.05 47.26-27.05L47.26-27.05Q47.36-26.22 47.39-25.42 47.41-24.61 47.46-23.78L47.46-23.78Q47.51-23.1 47.63-22.34 47.75-21.58 47.85-20.85L47.85-20.85Q49.46-21.53 51.05-22.22 52.63-22.9 54.25-23.58L54.25-23.58Q54.54-23.54 54.86-23.49 55.17-23.44 55.47-23.34L55.47-23.34Q55.56-23.24 55.66-23.1 55.76-22.95 55.91-22.85L55.91-22.85Q55.86-22.61 56.22-22.12 56.59-21.63 56.59-21.39L56.59-21.39Q56.59-21 56.69-20.92 56.78-20.85 56.88-20.51L56.88-20.51Q56.93-20.02 56.88-19.97L56.88-19.97Q57.13-19.73 57.27-19.48 57.42-19.24 57.42-18.9L57.42-18.9Q56.74-18.07 56.05-17.8 55.37-17.53 54.69-17.24L54.69-17.24Q54.44-17.14 54.17-16.97 53.9-16.8 53.66-16.7L53.66-16.7Q53.27-16.55 52.9-16.43 52.54-16.31 52.15-16.11L52.15-16.11Q51.51-15.77 50.85-15.36 50.19-14.94 49.51-14.79L49.51-14.79Q48.97-14.65 48.8-14.48 48.63-14.31 48.24-14.01L48.24-14.01 48.24-12.7 48.24-10.25Q48.24-9.77 48.24-9.25 48.24-8.74 48.19-8.2L48.19-8.2Q48.09-7.71 48.09-7.37L48.09-7.37 48.09-6.59Q48.34-6.69 48.58-6.76 48.83-6.84 49.07-6.93L49.07-6.93Q49.27-6.98 49.44-6.98 49.61-6.98 49.8-7.08L49.8-7.08Q50.05-7.13 50.19-7.18 50.34-7.23 50.53-7.32L50.53-7.32Q51.27-7.71 51.66-7.84 52.05-7.96 52.44-8.11L52.44-8.11Q53.27-8.4 54.05-8.72 54.83-9.03 55.61-9.33L55.61-9.33Q56.1-9.23 56.3-9.47L56.3-9.47Q56.54-9.42 56.71-9.38 56.88-9.33 57.13-9.33L57.13-9.33Q57.71-8.79 57.86-8.5 58.01-8.2 58.25-7.96L58.25-7.96Q58.49-7.52 58.59-7.52L58.59-7.52Q58.59-7.42 58.44-7.2 58.3-6.98 58.25-6.84ZM71.77-13.33L71.77-13.33Q71.87-13.09 72.5-12.28 73.14-11.47 73.95-10.52 74.75-9.57 75.53-8.69 76.31-7.81 76.61-7.42L76.61-7.42Q77.53-6.05 78.51-4.74 79.49-3.42 80.37-2L80.37-2Q80.61-1.76 80.76-1.39 80.9-1.03 80.9-0.63L80.9-0.63Q80.9-0.2 80.68-0.17 80.46-0.15 80.22-0.05L80.22-0.05Q79.73 0.29 79.34 0.34 78.95 0.39 78.71 0.39L78.71 0.39Q78.17 0.39 77.53 0.37 76.9 0.34 76.46 0.44L76.46 0.44Q76.31 0.49 76.12 0.61 75.92 0.73 75.83 0.73L75.83 0.73Q75.43 0.73 75.26 0.61 75.09 0.49 74.8 0.39L74.8 0.39Q74.41-0.05 74.09-0.54 73.77-1.03 73.43-1.51L73.43-1.51Q73.14-1.86 72.8-2.12 72.46-2.39 72.16-2.78L72.16-2.78Q71.38-3.91 70.58-4.93 69.77-5.96 68.94-6.98L68.94-6.98Q68.55-7.52 68.09-8.01 67.62-8.5 67.23-8.98L67.23-8.98Q66.84-9.52 66.5-10.11 66.16-10.69 65.77-11.23L65.77-11.23Q65.47-11.72 64.94-12.43 64.4-13.13 63.81-13.87 63.23-14.6 62.62-15.26 62.01-15.92 61.57-16.26L61.57-16.26Q61.57-16.6 61.37-16.75 61.18-16.89 60.93-17.09L60.93-17.09Q60.83-17.33 60.69-17.55 60.54-17.77 60.54-18.07L60.54-18.07Q60.54-18.26 60.59-18.41 60.64-18.55 60.69-18.7L60.69-18.7Q60.79-18.9 60.81-19.07 60.83-19.24 60.93-19.43L60.93-19.43Q61.18-20.07 61.64-20.56 62.1-21.04 62.35-21.68L62.35-21.68Q62.4-21.88 62.4-22.05 62.4-22.22 62.5-22.41L62.5-22.41Q62.64-22.71 62.93-23 63.23-23.29 63.47-23.63L63.47-23.63Q63.72-24.07 63.96-24.51 64.2-24.95 64.45-25.39L64.45-25.39Q65.13-26.51 65.96-27.56 66.79-28.61 67.52-29.64L67.52-29.64Q68.21-30.62 68.79-31.57 69.38-32.52 70.06-33.5L70.06-33.5Q70.41-33.98 70.84-34.59 71.28-35.21 71.75-35.79 72.21-36.38 72.7-36.89 73.19-37.4 73.68-37.65L73.68-37.65Q74.51-37.74 74.75-37.38 75-37.01 75.43-37.01L75.43-37.01Q76.12-36.87 76.36-36.57 76.61-36.28 76.85-36.04L76.85-36.04Q77.49-36.04 77.92-35.79 78.36-35.55 78.8-35.06L78.8-35.06Q78.61-34.52 78.29-34.08 77.97-33.64 77.73-33.15L77.73-33.15Q77.34-33.01 77.17-32.67 77-32.32 76.66-32.08L76.66-32.08Q76.12-31.25 75.58-30.44 75.04-29.64 74.51-28.91L74.51-28.91Q74.26-28.61 73.95-28.44 73.63-28.27 73.43-27.93L73.43-27.93Q73.33-27.78 73.29-27.61 73.24-27.44 73.14-27.29L73.14-27.29Q72.55-26.37 71.82-25.49 71.09-24.61 70.55-23.63L70.55-23.63Q70.31-23.29 70.16-22.92 70.01-22.56 69.82-22.22L69.82-22.22Q69.62-21.92 69.26-21.39 68.89-20.85 68.53-20.29 68.16-19.73 67.89-19.21 67.62-18.7 67.62-18.36L67.62-18.36Q67.67-18.12 68.26-17.38 68.84-16.65 69.55-15.82 70.26-14.99 70.92-14.26 71.58-13.53 71.77-13.33ZM106.83-19.38L106.83-19.38Q106.73-19.19 106.63-19.02 106.54-18.85 106.49-18.65L106.49-18.65Q106.68-18.46 106.85-18.24 107.02-18.02 107.02-17.77L107.02-17.77Q107.02-17.58 106.95-17.41 106.88-17.24 106.93-17.09L106.93-17.09Q106.73-16.75 106.51-16.46 106.29-16.16 106.19-15.82L106.19-15.82Q106-15.63 105.88-15.43 105.75-15.23 105.66-15.04L105.66-15.04Q105.41-14.94 105.34-14.72 105.27-14.5 105.07-14.36L105.07-14.36Q105.02-14.16 104.58-13.43 104.14-12.7 103.61-11.87 103.07-11.04 102.58-10.25 102.09-9.47 101.9-9.23L101.9-9.23Q101.8-8.98 101.68-8.84 101.56-8.69 101.41-8.5L101.41-8.5Q101.31-8.35 101.26-8.18 101.21-8.01 101.12-7.91L101.12-7.91Q101.02-7.71 100.9-7.57 100.77-7.42 100.68-7.18L100.68-7.18Q100.19-6.54 99.7-5.66 99.21-4.79 98.77-4.1L98.77-4.1Q98.53-3.71 98.31-3.32 98.09-2.93 97.84-2.54L97.84-2.54Q97.6-2.15 97.36-1.81 97.11-1.46 96.87-1.07L96.87-1.07Q96.48-0.78 96.18-0.37 95.89 0.05 95.5 0.34L95.5 0.34Q94.87 0.34 94.72-0.24L94.72-0.24Q94.08-0.39 94.08-0.24 94.08-0.1 94.08 0L94.08 0Q93.89 0.1 93.82 0.29 93.74 0.49 93.55 0.59L93.55 0.59Q93.16 0.49 92.89 0.27 92.62 0.05 92.13 0.1L92.13 0.1Q91.94-0.2 91.69-0.42 91.45-0.63 91.25-0.88L91.25-0.88Q91.15-1.17 90.98-1.37 90.81-1.56 90.67-1.76L90.67-1.76Q90.52-2 90.37-2.2 90.23-2.39 90.08-2.59L90.08-2.59Q89.74-3.03 89.42-3.44 89.1-3.86 88.86-4.3L88.86-4.3Q88.47-4.88 88.1-5.49 87.74-6.1 87.35-6.69L87.35-6.69Q87.15-6.98 86.96-7.28 86.76-7.57 86.61-7.86L86.61-7.86Q86.52-8.11 86.35-8.45 86.17-8.79 85.93-8.89L85.93-8.89Q85.83-9.28 85.59-9.47 85.34-9.67 85.1-9.96L85.1-9.96Q84.76-10.35 84.47-10.82 84.17-11.28 83.88-11.77L83.88-11.77Q82.9-13.13 82.05-14.45 81.19-15.77 80.36-17.19L80.36-17.19Q80.61-17.97 80.61-18.36 80.61-18.75 80.85-18.99L80.85-18.99Q80.85-19.19 80.95-19.58L80.95-19.58Q81.58-20.65 82.17-21.53L82.17-21.53Q82.71-22.36 82.93-22.9 83.15-23.44 83.39-24.02L83.39-24.02Q83.64-24.17 83.78-24.39 83.93-24.61 84.17-24.8L84.17-24.8Q84.27-25.34 84.61-25.71 84.95-26.07 85.05-26.61L85.05-26.61Q85.49-26.95 85.54-27.39L85.54-27.39Q86.17-27.83 86.32-28.56L86.32-28.56Q86.71-28.96 86.98-29.44 87.25-29.93 87.49-30.47L87.49-30.47Q88.08-30.96 88.42-31.74L88.42-31.74Q88.71-31.93 88.86-32.28 89.01-32.62 89.25-32.86L89.25-32.86Q89.64-33.5 89.86-33.91 90.08-34.33 90.32-34.77L90.32-34.77Q90.67-34.77 90.76-35.01 90.86-35.25 91.15-35.21L91.15-35.21Q91.15-35.64 91.4-35.99L91.4-35.99Q91.5-36.04 91.69-36.11 91.89-36.18 91.89-36.28L91.89-36.28Q91.79-36.87 91.94-36.96 92.08-37.06 92.18-37.16L92.18-37.16Q92.72-37.06 92.91-37.01 93.11-36.96 93.55-36.67L93.55-36.67Q94.04-36.67 94.23-36.47 94.43-36.28 94.67-36.18L94.67-36.18Q94.87-35.99 94.99-35.79 95.11-35.6 95.35-35.5L95.35-35.5Q95.74-34.96 96.18-34.33 96.62-33.69 97.01-33.15L97.01-33.15Q97.55-32.42 98.11-31.76 98.67-31.1 99.16-30.32L99.16-30.32Q99.31-30.08 99.7-29.47 100.09-28.86 100.58-28.17 101.07-27.49 101.46-26.93 101.85-26.37 101.99-26.27L101.99-26.27Q102.14-26.03 102.63-25.34 103.12-24.66 103.68-23.9 104.24-23.14 104.78-22.46 105.31-21.78 105.51-21.58L105.51-21.58Q106.05-20.85 106.32-20.39 106.58-19.92 106.83-19.38ZM95.65-10.21L95.65-10.21Q96.18-10.94 96.48-11.52 96.77-12.11 97.06-12.7L97.06-12.7Q97.55-13.28 97.65-13.53 97.75-13.77 97.89-14.01L97.89-14.01Q98.28-14.6 98.7-15.19 99.11-15.77 99.36-16.46L99.36-16.46Q99.65-16.65 99.8-16.94 99.94-17.24 100.24-17.48L100.24-17.48Q99.94-18.51 99.55-19.07 99.16-19.63 98.77-20.17L98.77-20.17Q98.63-20.41 98.48-20.65 98.33-20.9 98.19-21.14L98.19-21.14Q97.99-21.29 97.87-21.44 97.75-21.58 97.6-21.73L97.6-21.73Q97.5-21.97 97.31-22.36L97.31-22.36Q97.11-22.61 96.92-22.8 96.72-23 96.57-23.29L96.57-23.29Q96.38-23.49 96.09-23.83 95.79-24.17 95.48-24.58 95.16-25 94.91-25.37 94.67-25.73 94.52-25.98L94.52-25.98Q94.43-26.22 94.35-26.39 94.28-26.56 94.18-26.76L94.18-26.76Q93.94-27.1 93.69-27.37 93.45-27.64 93.21-27.98L93.21-27.98Q93.06-27.88 92.94-27.86 92.81-27.83 92.72-27.73L92.72-27.73Q92.38-27.1 91.96-26.56 91.55-26.03 91.15-25.39L91.15-25.39Q90.81-24.8 90.47-24.19 90.13-23.58 89.79-23L89.79-23Q89.54-22.66 89.32-22.34 89.1-22.02 88.86-21.63L88.86-21.63Q88.62-21.29 88.44-20.92 88.27-20.56 88.03-20.21L88.03-20.21Q87.64-19.73 87.39-19.34 87.15-18.95 86.91-18.41L86.91-18.41Q87.05-18.12 87.37-17.6 87.69-17.09 88.03-16.58 88.37-16.06 88.64-15.63 88.91-15.19 88.96-15.04L88.96-15.04Q89.35-14.7 89.59-14.28 89.84-13.87 90.23-13.48L90.23-13.48Q90.42-13.09 90.67-12.79 90.91-12.5 91.15-12.16L91.15-12.16Q91.4-11.82 91.79-11.16 92.18-10.5 92.57-9.81 92.96-9.13 93.35-8.54 93.74-7.96 93.99-7.81L93.99-7.81Q94.47-8.35 94.79-9.01 95.11-9.67 95.65-10.21Z" opacity="1" transform="matrix(1,0,0,1,0,0)" fill="#d498ca" class="undefined-text-0" data-fill-palette-color="primary" id="text-0"></path></svg></g></svg></g></svg></g></svg></g><g transform="matrix(1,0,0,1,53.54731116059891,0)"><svg viewBox="0 0 84.90537767880218 98.35051434737824" height="98.35051434737824" width="84.90537767880218"><g><svg xmlns="http://www.w3.org/2000/svg" xmlns:xlink="http://www.w3.org/1999/xlink" version="1.1" x="0" y="0" viewBox="9.63800048828125 3.246999979019165 80.7239990234375 93.50699615478516" enable-background="new 0 0 100 100" xml:space="preserve" height="98.35051434737824" width="84.90537767880218" class="icon-icon-0" data-fill-palette-color="accent" id="icon-0"><g fill="#d498ca" data-fill-palette-color="accent"><g fill="#d498ca" data-fill-palette-color="accent"><polygon points="36.703,11.011 9.638,26.636 9.638,38.757 36.703,23.131 63.767,38.757 63.767,26.636   " fill="#d498ca" data-fill-palette-color="accent"></polygon></g><g fill="#d498ca" data-fill-palette-color="accent"><polygon points="63.298,89.092 36.233,73.467 36.233,61.348 63.298,76.973 90.362,61.348 90.362,73.467   " fill="#d498ca" data-fill-palette-color="accent"></polygon></g><g fill="#d498ca" data-fill-palette-color="accent"><polygon points="9.638,42.012 36.703,26.386 47.198,32.446 20.134,48.072 20.134,79.324 9.638,73.264   " fill="#d498ca" data-fill-palette-color="accent"></polygon></g><g fill="#d498ca" data-fill-palette-color="accent"><polygon points="77.083,18.872 50.018,3.247 39.522,9.307 66.586,24.932 66.586,56.184 77.083,50.124   " fill="#d498ca" data-fill-palette-color="accent"></polygon></g><g fill="#d498ca" data-fill-palette-color="accent"><polygon points="23.01,81.127 23.011,49.876 33.507,43.816 33.507,75.068 60.571,90.693 50.075,96.754   " fill="#d498ca" data-fill-palette-color="accent"></polygon></g><g fill="#d498ca" data-fill-palette-color="accent"><polygon points="90.362,58.092 90.362,26.84 79.866,20.78 79.866,52.031 52.802,67.658 63.298,73.719   " fill="#d498ca" data-fill-palette-color="accent"></polygon></g></g></svg></g></svg></g><g></g></svg></g></svg></g></svg></g></svg></g><defs></defs></svg><rect width="320" height="360" fill="none" stroke="none" visibility="hidden"></rect></g></svg></g></svg>